PathFileType	4	(X/Y/Z)	Trial59_Left_Knee_markers_cropped.trc
DataRate	CameraRate	NumFrames	NumMarkers	Units	OrigDataRate	OrigDataStartFrame	OrigNumFrames																																																																																													
200	200	6	27	m	200	0	101
Frame#	Time	R_ASIS			L_ASIS			Sacral			L_Thigh_Superior			L_Thigh_Inferior			L_Thigh_Lateral			L_Shank_Superior			L_Shank_Inferior			L_Shank_Lateral			L_Heel			L_Midfoot_Superior			L_Midfoot_Lateral			L_Toe			R_Thigh_Superior			R_Thigh_Inferior			R_Thigh_Lateral			R_Shank_Superior			R_Shank_Lateral			R_Shank_Inferior			R_Heel			R_Midfoot_Superior			R_Midfoot_Lateral			R_Toe
		X1	Y1	Z1	X2	Y2	Z2	X3	Y3	Z3	X4	Y4	Z4	X5	Y5	Z5	X6	Y6	Z6	X7	Y7	Z7	X8	Y8	Z8	X9	Y9	Z9	X10	Y10	Z10	X11	Y11	Z11	X12	Y12	Z12	X13	Y13	Z13	X14	Y14	Z14	X15	Y15	Z15	X16	Y16	Z16	X17	Y17	Z17	X18	Y18	Z18	X19	Y19	Z19	X20	Y20	Z20	X21	Y21	Z21	X22	Y22	Z22	X23	Y23	Z23

1	   0.000	   -0.60656275102321	    0.92922796815000	   -0.39156052748140	   -0.59875418663248	    0.97461080978138	   -0.66299469485694	   -0.82182742744222	    1.00882760594355	   -0.52750257998390	   -0.51225662888594	    0.78877075576935	   -0.60793032131853	   -0.46579406052699	    0.59740406536891	   -0.59561964656263	   -0.54487917632905	    0.66808711416771	   -0.68441060958646	   -0.48091805497234	    0.44702870642731	   -0.62143689796572	   -0.53709153874075	    0.22511089886450	   -0.64389254208410	   -0.57110618031015	    0.35039613361903	   -0.70392400268454	   -0.67608417156205	    0.07221477816727	   -0.64645329922109	   -0.50997341703526	    0.12835019330096	   -0.67148892763551	   -0.59029903086716	    0.07302350755932	   -0.71500468005822	   -0.38202484057581	    0.07394246813125	   -0.68375117181733	   -0.56633349331535	    0.72794894813758	   -0.43440526306672	   -0.57224783131605	    0.56967456922915	   -0.47220794668742	   -0.65504156458461	    0.61542535334776	   -0.39263793730550	   -0.59945475639131	    0.39599967068453	   -0.47507965424550	   -0.62608453432661	    0.19867546909657	   -0.49212486876741	   -0.67366413648532	    0.28642375960097	   -0.42168131589332	   -0.75728294768698	    0.03576805674300	   -0.53877438178605	   -0.58743281009798	    0.09072721588467	   -0.49371696151354	   -0.67685187855190	    0.02819400159092	   -0.46135737997884	   -0.46882667276144	    0.03970094227379	   -0.46293614744029
2	   0.005	   -0.60623488336919	    0.92921139555355	   -0.39113228552068	   -0.59806521603243	    0.97429938567160	   -0.66260113287960	   -0.82135869902310	    1.00863219665105	   -0.52741659977526	   -0.51175685907875	    0.78830595144860	   -0.60735137177675	   -0.46561309898772	    0.59686629391160	   -0.59466258170254	   -0.54454151408235	    0.66756312626377	   -0.68361942432862	   -0.48095046673207	    0.44645917007530	   -0.62036328768606	   -0.53755456960355	    0.22464027920322	   -0.64266587674692	   -0.57127244273074	    0.34995025504967	   -0.70282604074873	   -0.67687561983006	    0.07203721565660	   -0.64521879830783	   -0.51058874140881	    0.12784505361165	   -0.67014717196020	   -0.59102120831986	    0.07260267711819	   -0.71366969592747	   -0.38277003470745	    0.07312538209283	   -0.68219581330655	   -0.56586841937484	    0.72790721456895	   -0.43396146529391	   -0.57179713908880	    0.56961000970768	   -0.47187427181114	   -0.65470516904012	    0.61532804401862	   -0.39232754185782	   -0.59911942447959	    0.39590539411633	   -0.47488157468215	   -0.62598900198257	    0.19856451122792	   -0.49203210461589	   -0.67341590301528	    0.28634110608846	   -0.42160648734024	   -0.75727123874015	    0.03578339170388	   -0.53878380614327	   -0.58741121291185	    0.09069988697852	   -0.49371927551319	   -0.67684869731262	    0.02820351110619	   -0.46136639193914	   -0.46883326274593	    0.03963902862413	   -0.46290752183965
3	   0.010	   -0.60591058339089	    0.92919408151955	   -0.39070238294619	   -0.59737799221913	    0.97398249077620	   -0.66220819230905	   -0.82089249702867	    1.00844273957673	   -0.52732878756760	   -0.51126663232270	    0.78783223316754	   -0.60677446607478	   -0.46545563289318	    0.59631592819174	   -0.59370344749746	   -0.54422521867367	    0.66703079495849	   -0.68282429047220	   -0.48101687604964	    0.44587876311077	   -0.61928232899652	   -0.53806386521000	    0.22416120321541	   -0.64142664560716	   -0.57147732199504	    0.34949613190937	   -0.70171955480623	   -0.67772390134180	    0.07185833645384	   -0.64397043667284	   -0.51125693859608	    0.12732939435628	   -0.66879075939982	   -0.59179884881733	    0.07217416701141	   -0.71232029984333	   -0.38357090156757	    0.07229074733582	   -0.68062298637239	   -0.56540274667564	    0.72786556387120	   -0.43352043860449	   -0.57134967946706	    0.56954565010184	   -0.47154252038176	   -0.65436860742548	    0.61522932061189	   -0.39201812097287	   -0.59879327012179	    0.39580968779430	   -0.47468074877917	   -0.62589384434036	    0.19845472662530	   -0.49194103946997	   -0.67316937249207	    0.28625779573633	   -0.42153318500476	   -0.75725941855504	    0.03579844654900	   -0.53879339337419	   -0.58739002949979	    0.09067256137749	   -0.49372161925165	   -0.67684547631956	    0.02821284053730	   -0.46137551086464	   -0.46883947617206	    0.03957740769738	   -0.46287918445809
4	   0.015	   -0.60559569576691	    0.92917460060708	   -0.39026809755956	   -0.59669603109186	    0.97365496134468	   -0.66181613862223	   -0.82043219394316	    1.00826822642027	   -0.52723692918385	   -0.51079897808312	    0.78734142298315	   -0.60620146889021	   -0.46534950514003	    0.59574041936877	   -0.59274096549597	   -0.54395537818628	    0.66648258870557	   -0.68202163724426	   -0.48115684530822	    0.44527741104858	   -0.61818928680465	   -0.53867456146063	    0.22366633436213	   -0.64016713202772	   -0.57176615635410	    0.34902764570846	   -0.70060013781263	   -0.67869656951156	    0.07167916288042	   -0.64270207246517	   -0.51204147665866	    0.12679384267027	   -0.66741083658026	   -0.59269790253530	    0.07173298286245	   -0.71094923655463	   -0.38449400485927	    0.07142213988554	   -0.67902144429061	   -0.56493939398270	    0.72782429090017	   -0.43308556814910	   -0.57091330509350	    0.56948160276551	   -0.47121508246630	   -0.65403542193862	    0.61512826746460	   -0.39171087108584	   -0.59848980272446	    0.39571209059086	   -0.47447410826760	   -0.62580061148562	    0.19834846494731	   -0.49185333881090	   -0.67292906009466	    0.28617358581525	   -0.42146291482417	   -0.75724748879396	    0.03581281142334	   -0.53880329964720	   -0.58736980517064	    0.09064549765099	   -0.49372375676577	   -0.67684228069936	    0.02822179018008	   -0.46138475949488	   -0.46884411807312	    0.03951685528616	   -0.46285208533541
5	   0.020	   -0.60529869355423	    0.92915070472409	   -0.38982653952784	   -0.59602483722646	    0.97331385591924	   -0.66142461657835	   -0.81998101907984	    1.00811969827094	   -0.52713939466807	   -0.51036926204929	    0.78682827604043	   -0.60563332693019	   -0.46532044823286	    0.59513128465712	   -0.59177607696751	   -0.54375464034598	    0.66591481570321	   -0.68121035887382	   -0.48140611657364	    0.44464953462140	   -0.61708619687148	   -0.53943978431159	    0.22315279005605	   -0.63889237419626	   -0.57218129401624	    0.34854490489270	   -0.69947273624292	   -0.67985893013118	    0.07150535038939	   -0.64142456005214	   -0.51300422117144	    0.12623484324843	   -0.66601350659672	   -0.59378233332858	    0.07128145134473	   -0.70956566654596	   -0.38560392678000	    0.07051027337481	   -0.67739661842350	   -0.56448644376337	    0.72778390009409	   -0.43265925412689	   -0.57050071070739	    0.56941768626812	   -0.47089346742622	   -0.65371448098090	    0.61502514147620	   -0.39140659354685	   -0.59822377710178	    0.39561463901414	   -0.47425913169768	   -0.62571277083791	    0.19824904462232	   -0.49176917106486	   -0.67270261211643	    0.28608923161637	   -0.42139625899399	   -0.75723578603006	    0.03582606008170	   -0.53881352824921	   -0.58735140649722	    0.09061926163611	   -0.49372496709200	   -0.67683945889947	    0.02823010963207	   -0.46139385767452	   -0.46884484064591	    0.03945871911505	   -0.46282809471035
6	   0.025	   -0.60502948560663	    0.92911957585001	   -0.38937616281026	   -0.59537138411531	    0.97295908828438	   -0.66103224813170	   -0.81954134020458	    1.00800832912635	   -0.52703596301054	   -0.50999238176219	    0.78629119779757	   -0.60506962468888	   -0.46538574494427	    0.59448656738079	   -0.59081335102892	   -0.54363797586898	    0.66532940013833	   -0.68039377085665	   -0.48178902968583	    0.44399558383487	   -0.61598342893647	   -0.54040214206394	    0.22262427483645	   -0.63762329711034	   -0.57275426902663	    0.34805667579755	   -0.69835336324297	   -0.68126452603276	    0.07134948507914	   -0.64016857998313	   -0.51419618430789	    0.12565751273457	   -0.66462344021920	   -0.59510502687999	    0.07083200800826	   -0.70819884093766	   -0.38695374999692	    0.06955553150733	   -0.67577563050804	   -0.56405566355910	    0.72774537743268	   -0.43224184354853	   -0.57012758658441	    0.56935345910667	   -0.47057719449898	   -0.65341851007127	    0.61492134454447	   -0.39110501341036	   -0.59800659771968	    0.39552182479430	   -0.47403466613930	   -0.62563532348290	    0.19815984179986	   -0.49168620263323	   -0.67249912265592	    0.28600637593973	   -0.42133242162724	   -0.75722489933967	    0.03583775829255	   -0.53882379758324	   -0.58733587986137	    0.09059457046033	   -0.49372410392528	   -0.67683754393228	    0.02823740035061	   -0.46140221160279	   -0.46883877886962	    0.03940451347770	   -0.46280963064419
